<svg width="100" height="101" viewBox="0 0 100 101" fill="none" xmlns="http://www.w3.org/2000/svg">
<g clip-path="url(#clip0_14_6448)">
<path d="M69.125 32.0833L41.6667 59.5416L26.7084 44.6249L20.8334 50.4999L41.6667 71.3333L75 37.9999L69.125 32.0833ZM50 8.83325C27 8.83325 8.33337 27.4999 8.33337 50.4999C8.33337 73.4999 27 92.1666 50 92.1666C73 92.1666 91.6667 73.4999 91.6667 50.4999C91.6667 27.4999 73 8.83325 50 8.83325ZM50 83.8333C31.5834 83.8333 16.6667 68.9166 16.6667 50.4999C16.6667 32.0833 31.5834 17.1666 50 17.1666C68.4167 17.1666 83.3334 32.0833 83.3334 50.4999C83.3334 68.9166 68.4167 83.8333 50 83.8333Z" fill="#41D171"/>
</g>
<defs>
<clipPath id="clip0_14_6448">
<rect width="100" height="100" fill="white" transform="translate(0 0.5)"/>
</clipPath>
</defs>
</svg>
