<svg width="46" height="84" viewBox="0 0 46 84" fill="none"
    xmlns="http://www.w3.org/2000/svg">
    <path d="M21.9532 57.2895C20.2059 57.2895 18.7322 56.6706 17.5324 55.4329C16.3296 54.1952 15.801 52.739 15.9467 51.0645C16.1651 48.0066 16.8931 45.3491 18.1309 43.0921C19.3686 40.8351 21.3344 38.5053 24.0282 36.1026C27.0133 33.4816 29.2878 31.2056 30.8517 29.2748C32.4185 27.3469 33.2019 25.1452 33.2019 22.6697C33.2019 19.6846 32.2015 17.2092 30.2008 15.2434C28.1972 13.2776 25.4116 12.2947 21.844 12.2947C19.5142 12.2947 17.5309 12.7855 15.8942 13.7669C14.2546 14.7512 12.9252 15.9715 11.9059 17.4276C10.8866 18.8838 9.63137 19.8667 8.14028 20.3763C6.64628 20.886 5.20762 20.8496 3.82428 20.2671C2.14972 19.539 1.00374 18.3377 0.386336 16.6632C-0.233979 14.9886 -0.107294 13.4232 0.766391 11.9671C2.87779 8.69079 5.71727 5.96053 9.28481 3.77632C12.8524 1.59211 17.0388 0.5 21.844 0.5C29.4888 0.5 35.3687 2.63033 39.4837 6.891C43.5958 11.1488 45.6519 16.2627 45.6519 22.2329C45.6519 25.8732 44.87 28.9865 43.3061 31.5726C41.7393 34.1558 39.2813 37.0855 35.9322 40.3618C33.4567 42.6917 31.7094 44.5847 30.6901 46.0408C29.6708 47.4969 28.9791 49.1715 28.6151 51.0645C28.3238 52.8846 27.5594 54.3772 26.3217 55.5421C25.0839 56.707 23.6278 57.2895 21.9532 57.2895ZM21.844 83.5C19.4414 83.5 17.3853 82.6452 15.6758 80.9357C13.9634 79.2233 13.1072 77.1658 13.1072 74.7632C13.1072 72.3605 13.9634 70.303 15.6758 68.5906C17.3853 66.8811 19.4414 66.0263 21.844 66.0263C24.2467 66.0263 26.3042 66.8811 28.0166 68.5906C29.7261 70.303 30.5809 72.3605 30.5809 74.7632C30.5809 77.1658 29.7261 79.2233 28.0166 80.9357C26.3042 82.6452 24.2467 83.5 21.844 83.5Z" fill="#003540" fill-opacity="0.9"/>
</svg>
